<svg width="210" height="15" viewBox="0 0 210 15" fill="none" xmlns="http://www.w3.org/2000/svg">
<path d="M8.12109 11L6.87695 7.82129H2.87109L1.64062 11H0.464844L4.41602 0.964844H5.39355L9.32422 11H8.12109ZM6.51465 6.77539L5.35254 3.67871C5.20215 3.28678 5.0472 2.80599 4.8877 2.23633C4.78743 2.67383 4.64388 3.15462 4.45703 3.67871L3.28125 6.77539H6.51465ZM11.6621 11H10.5273V0.363281H11.6621V11ZM15.2031 11H14.0684V0.363281H15.2031V11ZM22.5791 6.84375V11H21.417V1.00586H24.1582C25.3841 1.00586 26.2887 1.24056 26.8721 1.70996C27.46 2.17936 27.7539 2.88574 27.7539 3.8291C27.7539 5.15072 27.084 6.04395 25.7441 6.50879L28.458 11H27.084L24.6641 6.84375H22.5791ZM22.5791 5.8457H24.1719C24.9922 5.8457 25.5938 5.68392 25.9766 5.36035C26.3594 5.03223 26.5508 4.54232 26.5508 3.89062C26.5508 3.22982 26.3548 2.75358 25.9629 2.46191C25.5755 2.17025 24.9512 2.02441 24.0898 2.02441H22.5791V5.8457ZM31.0352 11H29.9004V3.50781H31.0352V11ZM29.8047 1.47754C29.8047 1.21777 29.8685 1.02865 29.9961 0.910156C30.1237 0.787109 30.2832 0.725586 30.4746 0.725586C30.6569 0.725586 30.8141 0.787109 30.9463 0.910156C31.0785 1.0332 31.1445 1.22233 31.1445 1.47754C31.1445 1.73275 31.0785 1.92415 30.9463 2.05176C30.8141 2.1748 30.6569 2.23633 30.4746 2.23633C30.2832 2.23633 30.1237 2.1748 29.9961 2.05176C29.8685 1.92415 29.8047 1.73275 29.8047 1.47754ZM39.5732 3.50781V4.22559L38.1855 4.38965C38.3132 4.54915 38.4271 4.75879 38.5273 5.01855C38.6276 5.27376 38.6777 5.56315 38.6777 5.88672C38.6777 6.62044 38.4271 7.20605 37.9258 7.64355C37.4245 8.08105 36.7363 8.2998 35.8613 8.2998C35.638 8.2998 35.4284 8.28158 35.2324 8.24512C34.7493 8.50033 34.5078 8.82161 34.5078 9.20898C34.5078 9.41406 34.5921 9.56673 34.7607 9.66699C34.9294 9.7627 35.2188 9.81055 35.6289 9.81055H36.9551C37.7663 9.81055 38.3883 9.98145 38.8213 10.3232C39.2588 10.665 39.4775 11.1618 39.4775 11.8135C39.4775 12.6429 39.1449 13.2741 38.4795 13.707C37.8141 14.1445 36.8434 14.3633 35.5674 14.3633C34.5876 14.3633 33.8311 14.181 33.2979 13.8164C32.7692 13.4518 32.5049 12.9368 32.5049 12.2715C32.5049 11.8158 32.6507 11.4215 32.9424 11.0889C33.234 10.7562 33.6442 10.5306 34.1729 10.4121C33.9814 10.3255 33.8197 10.1911 33.6875 10.0088C33.5599 9.8265 33.4961 9.61458 33.4961 9.37305C33.4961 9.09961 33.569 8.86035 33.7148 8.65527C33.8607 8.4502 34.0908 8.25195 34.4053 8.06055C34.0179 7.90104 33.7012 7.62988 33.4551 7.24707C33.2135 6.86426 33.0928 6.42676 33.0928 5.93457C33.0928 5.11426 33.3389 4.48307 33.8311 4.04102C34.3232 3.5944 35.0205 3.37109 35.9229 3.37109C36.3148 3.37109 36.668 3.41667 36.9824 3.50781H39.5732ZM33.5986 12.2578C33.5986 12.6634 33.7695 12.971 34.1113 13.1807C34.4531 13.3903 34.943 13.4951 35.5811 13.4951C36.5335 13.4951 37.2376 13.3516 37.6934 13.0645C38.1536 12.7819 38.3838 12.3968 38.3838 11.9092C38.3838 11.5036 38.2585 11.221 38.0078 11.0615C37.7572 10.9066 37.2855 10.8291 36.5928 10.8291H35.2324C34.7174 10.8291 34.3164 10.9521 34.0293 11.1982C33.7422 11.4443 33.5986 11.7975 33.5986 12.2578ZM34.2139 5.90723C34.2139 6.43132 34.362 6.8278 34.6582 7.09668C34.9544 7.36556 35.3669 7.5 35.8955 7.5C37.0029 7.5 37.5566 6.96224 37.5566 5.88672C37.5566 4.76107 36.9961 4.19824 35.875 4.19824C35.3418 4.19824 34.9316 4.3418 34.6445 4.62891C34.3574 4.91602 34.2139 5.34212 34.2139 5.90723ZM46.2383 11V6.15332C46.2383 5.54264 46.0993 5.08691 45.8213 4.78613C45.5433 4.48535 45.1081 4.33496 44.5156 4.33496C43.7272 4.33496 43.1507 4.54915 42.7861 4.97754C42.4261 5.40592 42.2461 6.10775 42.2461 7.08301V11H41.1113V0.363281H42.2461V3.58301C42.2461 3.97038 42.2279 4.29167 42.1914 4.54688H42.2598C42.4831 4.18685 42.7998 3.9043 43.21 3.69922C43.6247 3.48958 44.0964 3.38477 44.625 3.38477C45.541 3.38477 46.2269 3.60352 46.6826 4.04102C47.1429 4.47396 47.373 5.16439 47.373 6.1123V11H46.2383ZM52.1309 10.2002C52.3314 10.2002 52.5251 10.1865 52.7119 10.1592C52.8988 10.1273 53.0469 10.0954 53.1562 10.0635V10.9316C53.0332 10.9909 52.8509 11.0387 52.6094 11.0752C52.3724 11.1162 52.1582 11.1367 51.9668 11.1367C50.5176 11.1367 49.793 10.3734 49.793 8.84668V4.38965H48.7197V3.84277L49.793 3.37109L50.2715 1.77148H50.9277V3.50781H53.1016V4.38965H50.9277V8.79883C50.9277 9.25 51.0348 9.59635 51.249 9.83789C51.4632 10.0794 51.7572 10.2002 52.1309 10.2002ZM59.4932 8.95605C59.4932 9.65332 59.2334 10.1911 58.7139 10.5693C58.1943 10.9476 57.4652 11.1367 56.5264 11.1367C55.5329 11.1367 54.7581 10.9795 54.2021 10.665V9.6123C54.5622 9.7946 54.9473 9.93815 55.3574 10.043C55.7721 10.1478 56.1709 10.2002 56.5537 10.2002C57.1462 10.2002 57.6019 10.1068 57.9209 9.91992C58.2399 9.72852 58.3994 9.43913 58.3994 9.05176C58.3994 8.76009 58.2718 8.51172 58.0166 8.30664C57.766 8.09701 57.2738 7.85091 56.54 7.56836C55.8428 7.30859 55.346 7.08301 55.0498 6.8916C54.7581 6.69564 54.5394 6.47461 54.3936 6.22852C54.2523 5.98242 54.1816 5.68848 54.1816 5.34668C54.1816 4.736 54.43 4.25521 54.9268 3.9043C55.4235 3.54883 56.1048 3.37109 56.9707 3.37109C57.7773 3.37109 58.5658 3.53516 59.3359 3.86328L58.9326 4.78613C58.1807 4.47624 57.4993 4.32129 56.8887 4.32129C56.3509 4.32129 55.9453 4.4056 55.6719 4.57422C55.3984 4.74284 55.2617 4.97526 55.2617 5.27148C55.2617 5.47201 55.3118 5.6429 55.4121 5.78418C55.5169 5.92546 55.6833 6.0599 55.9111 6.1875C56.139 6.3151 56.5765 6.49967 57.2236 6.74121C58.1123 7.06478 58.7116 7.39062 59.0215 7.71875C59.3359 8.04688 59.4932 8.45931 59.4932 8.95605ZM66.3154 6.84375V11H65.1533V1.00586H67.8945C69.1204 1.00586 70.0251 1.24056 70.6084 1.70996C71.1963 2.17936 71.4902 2.88574 71.4902 3.8291C71.4902 5.15072 70.8203 6.04395 69.4805 6.50879L72.1943 11H70.8203L68.4004 6.84375H66.3154ZM66.3154 5.8457H67.9082C68.7285 5.8457 69.3301 5.68392 69.7129 5.36035C70.0957 5.03223 70.2871 4.54232 70.2871 3.89062C70.2871 3.22982 70.0911 2.75358 69.6992 2.46191C69.3118 2.17025 68.6875 2.02441 67.8262 2.02441H66.3154V5.8457ZM76.8018 11.1367C75.6943 11.1367 74.8193 10.7995 74.1768 10.125C73.5387 9.45052 73.2197 8.514 73.2197 7.31543C73.2197 6.10775 73.516 5.14844 74.1084 4.4375C74.7054 3.72656 75.5052 3.37109 76.5078 3.37109C77.4466 3.37109 78.1895 3.68099 78.7363 4.30078C79.2832 4.91602 79.5566 5.72949 79.5566 6.74121V7.45898H74.3955C74.4183 8.33854 74.6393 9.00618 75.0586 9.46191C75.4824 9.91764 76.0771 10.1455 76.8428 10.1455C77.6494 10.1455 78.4469 9.97689 79.2354 9.63965V10.6514C78.8343 10.8245 78.4538 10.9476 78.0938 11.0205C77.7383 11.098 77.3076 11.1367 76.8018 11.1367ZM76.4941 4.32129C75.8926 4.32129 75.4118 4.51725 75.0518 4.90918C74.6963 5.30111 74.4867 5.84342 74.4229 6.53613H78.3398C78.3398 5.82064 78.1803 5.27376 77.8613 4.89551C77.5423 4.5127 77.0866 4.32129 76.4941 4.32129ZM86.3311 8.95605C86.3311 9.65332 86.0713 10.1911 85.5518 10.5693C85.0322 10.9476 84.3031 11.1367 83.3643 11.1367C82.3708 11.1367 81.596 10.9795 81.04 10.665V9.6123C81.4001 9.7946 81.7852 9.93815 82.1953 10.043C82.61 10.1478 83.0088 10.2002 83.3916 10.2002C83.984 10.2002 84.4398 10.1068 84.7588 9.91992C85.0778 9.72852 85.2373 9.43913 85.2373 9.05176C85.2373 8.76009 85.1097 8.51172 84.8545 8.30664C84.6038 8.09701 84.1117 7.85091 83.3779 7.56836C82.6807 7.30859 82.1839 7.08301 81.8877 6.8916C81.596 6.69564 81.3773 6.47461 81.2314 6.22852C81.0902 5.98242 81.0195 5.68848 81.0195 5.34668C81.0195 4.736 81.2679 4.25521 81.7646 3.9043C82.2614 3.54883 82.9427 3.37109 83.8086 3.37109C84.6152 3.37109 85.4036 3.53516 86.1738 3.86328L85.7705 4.78613C85.0186 4.47624 84.3372 4.32129 83.7266 4.32129C83.1888 4.32129 82.7832 4.4056 82.5098 4.57422C82.2363 4.74284 82.0996 4.97526 82.0996 5.27148C82.0996 5.47201 82.1497 5.6429 82.25 5.78418C82.3548 5.92546 82.5212 6.0599 82.749 6.1875C82.9769 6.3151 83.4144 6.49967 84.0615 6.74121C84.9502 7.06478 85.5495 7.39062 85.8594 7.71875C86.1738 8.04688 86.3311 8.45931 86.3311 8.95605ZM91.3486 11.1367C90.2412 11.1367 89.3662 10.7995 88.7236 10.125C88.0856 9.45052 87.7666 8.514 87.7666 7.31543C87.7666 6.10775 88.0628 5.14844 88.6553 4.4375C89.2523 3.72656 90.0521 3.37109 91.0547 3.37109C91.9935 3.37109 92.7363 3.68099 93.2832 4.30078C93.8301 4.91602 94.1035 5.72949 94.1035 6.74121V7.45898H88.9424C88.9652 8.33854 89.1862 9.00618 89.6055 9.46191C90.0293 9.91764 90.624 10.1455 91.3896 10.1455C92.1963 10.1455 92.9938 9.97689 93.7822 9.63965V10.6514C93.3812 10.8245 93.0007 10.9476 92.6406 11.0205C92.2852 11.098 91.8545 11.1367 91.3486 11.1367ZM91.041 4.32129C90.4395 4.32129 89.9587 4.51725 89.5986 4.90918C89.2432 5.30111 89.0335 5.84342 88.9697 6.53613H92.8867C92.8867 5.82064 92.7272 5.27376 92.4082 4.89551C92.0892 4.5127 91.6335 4.32129 91.041 4.32129ZM99.4629 3.37109C99.7956 3.37109 100.094 3.39844 100.358 3.45312L100.201 4.50586C99.8913 4.4375 99.6178 4.40332 99.3809 4.40332C98.7747 4.40332 98.2552 4.64941 97.8223 5.1416C97.3939 5.63379 97.1797 6.24674 97.1797 6.98047V11H96.0449V3.50781H96.9814L97.1113 4.89551H97.166C97.444 4.40788 97.779 4.0319 98.1709 3.76758C98.5628 3.50326 98.9935 3.37109 99.4629 3.37109ZM103.4 11L100.557 3.50781H101.773L103.387 7.95117C103.751 8.99023 103.965 9.66471 104.029 9.97461H104.084C104.134 9.73307 104.291 9.23405 104.556 8.47754C104.825 7.71647 105.424 6.0599 106.354 3.50781H107.57L104.727 11H103.4ZM111.938 11.1367C110.831 11.1367 109.956 10.7995 109.313 10.125C108.675 9.45052 108.356 8.514 108.356 7.31543C108.356 6.10775 108.653 5.14844 109.245 4.4375C109.842 3.72656 110.642 3.37109 111.645 3.37109C112.583 3.37109 113.326 3.68099 113.873 4.30078C114.42 4.91602 114.693 5.72949 114.693 6.74121V7.45898H109.532C109.555 8.33854 109.776 9.00618 110.195 9.46191C110.619 9.91764 111.214 10.1455 111.979 10.1455C112.786 10.1455 113.584 9.97689 114.372 9.63965V10.6514C113.971 10.8245 113.59 10.9476 113.23 11.0205C112.875 11.098 112.444 11.1367 111.938 11.1367ZM111.631 4.32129C111.029 4.32129 110.549 4.51725 110.188 4.90918C109.833 5.30111 109.623 5.84342 109.56 6.53613H113.477C113.477 5.82064 113.317 5.27376 112.998 4.89551C112.679 4.5127 112.223 4.32129 111.631 4.32129ZM121.734 9.99512H121.673C121.149 10.7562 120.365 11.1367 119.321 11.1367C118.341 11.1367 117.578 10.8018 117.031 10.1318C116.489 9.46191 116.218 8.50944 116.218 7.27441C116.218 6.03939 116.491 5.08008 117.038 4.39648C117.585 3.71289 118.346 3.37109 119.321 3.37109C120.338 3.37109 121.117 3.74023 121.659 4.47852H121.748L121.7 3.93848L121.673 3.41211V0.363281H122.808V11H121.885L121.734 9.99512ZM119.465 10.1865C120.24 10.1865 120.8 9.97689 121.146 9.55762C121.497 9.13379 121.673 8.45247 121.673 7.51367V7.27441C121.673 6.21257 121.495 5.45605 121.14 5.00488C120.789 4.54915 120.226 4.32129 119.451 4.32129C118.786 4.32129 118.275 4.58105 117.92 5.10059C117.569 5.61556 117.394 6.34473 117.394 7.28809C117.394 8.24512 117.569 8.96745 117.92 9.45508C118.271 9.94271 118.786 10.1865 119.465 10.1865ZM134.907 11H128.338V10.0225L130.97 7.37695C131.772 6.56576 132.3 5.98698 132.556 5.64062C132.811 5.29427 133.002 4.95703 133.13 4.62891C133.257 4.30078 133.321 3.94759 133.321 3.56934C133.321 3.03613 133.16 2.61458 132.836 2.30469C132.512 1.99023 132.063 1.83301 131.489 1.83301C131.075 1.83301 130.68 1.90137 130.307 2.03809C129.938 2.1748 129.525 2.42318 129.069 2.7832L128.468 2.01074C129.388 1.24512 130.391 0.862305 131.476 0.862305C132.414 0.862305 133.15 1.10384 133.684 1.58691C134.217 2.06543 134.483 2.71029 134.483 3.52148C134.483 4.15495 134.306 4.78158 133.95 5.40137C133.595 6.02116 132.929 6.80501 131.954 7.75293L129.767 9.89258V9.94727H134.907V11ZM142.974 5.98926C142.974 7.71647 142.7 9.00618 142.153 9.8584C141.611 10.7106 140.779 11.1367 139.658 11.1367C138.583 11.1367 137.765 10.7015 137.204 9.83105C136.644 8.95605 136.363 7.67546 136.363 5.98926C136.363 4.24837 136.634 2.95638 137.177 2.11328C137.719 1.27018 138.546 0.848633 139.658 0.848633C140.743 0.848633 141.565 1.28841 142.126 2.16797C142.691 3.04753 142.974 4.32129 142.974 5.98926ZM137.512 5.98926C137.512 7.44303 137.683 8.5026 138.024 9.16797C138.366 9.82878 138.911 10.1592 139.658 10.1592C140.415 10.1592 140.962 9.82422 141.299 9.1543C141.641 8.47982 141.812 7.4248 141.812 5.98926C141.812 4.55371 141.641 3.50326 141.299 2.83789C140.962 2.16797 140.415 1.83301 139.658 1.83301C138.911 1.83301 138.366 2.16341 138.024 2.82422C137.683 3.48047 137.512 4.53548 137.512 5.98926ZM148.565 11H147.458V3.87695C147.458 3.28451 147.476 2.72396 147.513 2.19531C147.417 2.29102 147.31 2.39128 147.191 2.49609C147.073 2.60091 146.531 3.04525 145.564 3.8291L144.963 3.0498L147.608 1.00586H148.565V11ZM155.682 0.862305C156.593 0.862305 157.315 1.07422 157.849 1.49805C158.382 1.92188 158.648 2.50749 158.648 3.25488C158.648 3.74707 158.496 4.19596 158.19 4.60156C157.885 5.00716 157.397 5.3763 156.728 5.70898C157.539 6.09635 158.115 6.50423 158.457 6.93262C158.799 7.35645 158.97 7.84863 158.97 8.40918C158.97 9.23861 158.68 9.90169 158.102 10.3984C157.523 10.8906 156.73 11.1367 155.723 11.1367C154.656 11.1367 153.836 10.9043 153.262 10.4395C152.688 9.97005 152.4 9.30697 152.4 8.4502C152.4 7.30632 153.098 6.41536 154.492 5.77734C153.863 5.42188 153.412 5.03906 153.139 4.62891C152.865 4.21419 152.729 3.75163 152.729 3.24121C152.729 2.5166 152.995 1.9401 153.528 1.51172C154.066 1.07878 154.784 0.862305 155.682 0.862305ZM153.521 8.47754C153.521 9.02441 153.711 9.45052 154.089 9.75586C154.472 10.0612 155.007 10.2139 155.695 10.2139C156.374 10.2139 156.903 10.0544 157.281 9.73535C157.66 9.41634 157.849 8.97884 157.849 8.42285C157.849 7.98079 157.671 7.58887 157.315 7.24707C156.96 6.90072 156.34 6.56576 155.456 6.24219C154.777 6.53385 154.285 6.85742 153.979 7.21289C153.674 7.5638 153.521 7.98535 153.521 8.47754ZM155.668 1.78516C155.098 1.78516 154.652 1.92188 154.328 2.19531C154.005 2.46875 153.843 2.83333 153.843 3.28906C153.843 3.70833 153.977 4.06836 154.246 4.36914C154.515 4.66992 155.012 4.9707 155.736 5.27148C156.388 4.99805 156.848 4.7041 157.117 4.38965C157.391 4.0752 157.527 3.70833 157.527 3.28906C157.527 2.82878 157.361 2.46419 157.028 2.19531C156.7 1.92188 156.247 1.78516 155.668 1.78516ZM170.215 3.35742C170.215 3.99544 170.035 4.51725 169.675 4.92285C169.319 5.32845 168.813 5.59961 168.157 5.73633V5.79102C168.959 5.89128 169.554 6.14648 169.941 6.55664C170.329 6.9668 170.522 7.50456 170.522 8.16992C170.522 9.1224 170.192 9.85612 169.531 10.3711C168.87 10.8815 167.932 11.1367 166.715 11.1367C166.186 11.1367 165.701 11.0957 165.259 11.0137C164.821 10.9362 164.395 10.7972 163.98 10.5967V9.5166C164.413 9.73079 164.874 9.89486 165.361 10.0088C165.854 10.1182 166.318 10.1729 166.756 10.1729C168.483 10.1729 169.347 9.49609 169.347 8.14258C169.347 6.93034 168.394 6.32422 166.489 6.32422H165.505V5.34668H166.503C167.282 5.34668 167.9 5.17578 168.355 4.83398C168.811 4.48763 169.039 4.00911 169.039 3.39844C169.039 2.91081 168.87 2.52799 168.533 2.25C168.201 1.97201 167.747 1.83301 167.173 1.83301C166.735 1.83301 166.323 1.89225 165.936 2.01074C165.548 2.12923 165.106 2.34798 164.609 2.66699L164.035 1.90137C164.445 1.5778 164.917 1.32487 165.45 1.14258C165.988 0.955729 166.553 0.862305 167.146 0.862305C168.116 0.862305 168.87 1.08561 169.408 1.53223C169.946 1.97428 170.215 2.58268 170.215 3.35742ZM173.688 11H172.553V0.363281H173.688V11ZM180.701 11L180.476 9.93359H180.421C180.047 10.403 179.674 10.722 179.3 10.8906C178.931 11.0547 178.468 11.1367 177.912 11.1367C177.169 11.1367 176.586 10.9453 176.162 10.5625C175.743 10.1797 175.533 9.63509 175.533 8.92871C175.533 7.41569 176.743 6.62272 179.163 6.5498L180.435 6.50879V6.04395C180.435 5.45605 180.307 5.02311 180.052 4.74512C179.801 4.46257 179.398 4.32129 178.842 4.32129C178.217 4.32129 177.511 4.5127 176.723 4.89551L176.374 4.02734C176.743 3.82682 177.146 3.6696 177.584 3.55566C178.026 3.44173 178.468 3.38477 178.91 3.38477C179.803 3.38477 180.464 3.58301 180.893 3.97949C181.326 4.37598 181.542 5.01172 181.542 5.88672V11H180.701ZM178.138 10.2002C178.844 10.2002 179.398 10.0065 179.799 9.61914C180.204 9.23177 180.407 8.68945 180.407 7.99219V7.31543L179.272 7.36328C178.37 7.39518 177.718 7.53646 177.317 7.78711C176.921 8.0332 176.723 8.41829 176.723 8.94238C176.723 9.35254 176.846 9.66471 177.092 9.87891C177.342 10.0931 177.691 10.2002 178.138 10.2002ZM182.697 3.50781H183.914L185.555 7.78027C185.915 8.75553 186.138 9.45964 186.225 9.89258H186.279C186.339 9.66016 186.462 9.26367 186.648 8.70312C186.84 8.13802 187.46 6.40625 188.508 3.50781H189.725L186.505 12.0391C186.186 12.8822 185.812 13.4792 185.384 13.8301C184.96 14.1855 184.438 14.3633 183.818 14.3633C183.472 14.3633 183.13 14.3245 182.793 14.2471V13.3379C183.044 13.3926 183.324 13.4199 183.634 13.4199C184.413 13.4199 184.969 12.9824 185.302 12.1074L185.719 11.041L182.697 3.50781ZM194.106 11.1367C192.999 11.1367 192.124 10.7995 191.481 10.125C190.843 9.45052 190.524 8.514 190.524 7.31543C190.524 6.10775 190.821 5.14844 191.413 4.4375C192.01 3.72656 192.81 3.37109 193.812 3.37109C194.751 3.37109 195.494 3.68099 196.041 4.30078C196.588 4.91602 196.861 5.72949 196.861 6.74121V7.45898H191.7C191.723 8.33854 191.944 9.00618 192.363 9.46191C192.787 9.91764 193.382 10.1455 194.147 10.1455C194.954 10.1455 195.752 9.97689 196.54 9.63965V10.6514C196.139 10.8245 195.758 10.9476 195.398 11.0205C195.043 11.098 194.612 11.1367 194.106 11.1367ZM193.799 4.32129C193.197 4.32129 192.716 4.51725 192.356 4.90918C192.001 5.30111 191.791 5.84342 191.728 6.53613H195.645C195.645 5.82064 195.485 5.27376 195.166 4.89551C194.847 4.5127 194.391 4.32129 193.799 4.32129ZM202.221 3.37109C202.553 3.37109 202.852 3.39844 203.116 3.45312L202.959 4.50586C202.649 4.4375 202.376 4.40332 202.139 4.40332C201.533 4.40332 201.013 4.64941 200.58 5.1416C200.152 5.63379 199.938 6.24674 199.938 6.98047V11H198.803V3.50781H199.739L199.869 4.89551H199.924C200.202 4.40788 200.537 4.0319 200.929 3.76758C201.321 3.50326 201.751 3.37109 202.221 3.37109ZM209.351 8.95605C209.351 9.65332 209.091 10.1911 208.571 10.5693C208.052 10.9476 207.323 11.1367 206.384 11.1367C205.39 11.1367 204.616 10.9795 204.06 10.665V9.6123C204.42 9.7946 204.805 9.93815 205.215 10.043C205.63 10.1478 206.028 10.2002 206.411 10.2002C207.004 10.2002 207.459 10.1068 207.778 9.91992C208.097 9.72852 208.257 9.43913 208.257 9.05176C208.257 8.76009 208.129 8.51172 207.874 8.30664C207.623 8.09701 207.131 7.85091 206.397 7.56836C205.7 7.30859 205.203 7.08301 204.907 6.8916C204.616 6.69564 204.397 6.47461 204.251 6.22852C204.11 5.98242 204.039 5.68848 204.039 5.34668C204.039 4.736 204.287 4.25521 204.784 3.9043C205.281 3.54883 205.962 3.37109 206.828 3.37109C207.635 3.37109 208.423 3.53516 209.193 3.86328L208.79 4.78613C208.038 4.47624 207.357 4.32129 206.746 4.32129C206.208 4.32129 205.803 4.4056 205.529 4.57422C205.256 4.74284 205.119 4.97526 205.119 5.27148C205.119 5.47201 205.169 5.6429 205.27 5.78418C205.374 5.92546 205.541 6.0599 205.769 6.1875C205.996 6.3151 206.434 6.49967 207.081 6.74121C207.97 7.06478 208.569 7.39062 208.879 7.71875C209.193 8.04688 209.351 8.45931 209.351 8.95605Z" fill="#9B9B9B"/>
</svg>
